<!--?xml version="1.0" encoding="UTF-8" standalone="no"?-->

<svg width="100%" height="100%" viewBox="0 0 100 97" version="1.1" xmlns="http://www.w3.org/2000/svg" xmlns:xlink="http://www.w3.org/1999/xlink" xml:space="preserve" xmlns:serif="http://www.serif.com/" style="fill-rule: evenodd; clip-rule: evenodd; stroke-linecap: round; stroke-linejoin: round; stroke-miterlimit: 1.5;">
    <g transform="matrix(-2.80883e-17,0.152906,-0.102265,-1.87858e-17,129.11,-8.00384)">
        <path d="M191.965,499.323L191.965,678.745" style="fill:none;stroke:rgb(204,204,204);stroke-width:46.13px;" class="RvnABvKp_0"></path>
    </g>
    <g transform="matrix(-5.61767e-17,0.305811,-0.204531,-3.75717e-17,198.522,-55.705)">
        <path d="M191.965,499.323L191.965,678.745" style="fill:none;stroke:rgb(204,204,204);stroke-width:23.06px;" class="RvnABvKp_1"></path>
    </g>
    <g transform="matrix(-5.61767e-17,0.305811,-0.204531,-3.75717e-17,198.522,-19.0077)">
        <path d="M191.965,499.323L191.965,678.745" style="fill:none;stroke:rgb(204,204,204);stroke-width:23.06px;" class="RvnABvKp_2"></path>
    </g>
    <g transform="matrix(-0.305811,-3.74511e-17,2.50478e-17,-0.204531,118.402,141.824)">
        <path d="M191.965,499.323L191.965,678.745" style="fill:none;stroke:rgb(204,204,204);stroke-width:23.06px;" class="RvnABvKp_3"></path>
    </g>
    <g transform="matrix(-1.42053e-16,0.7733,-0.517193,-9.50068e-17,354.042,-91.9969)">
        <path d="M191.965,499.323L191.965,678.745" style="fill:none;stroke:rgb(204,204,204);stroke-width:9.12px;" class="RvnABvKp_4"></path>
    </g>
    <g transform="matrix(-3.19723e-17,0.174049,-0.116406,-2.13835e-17,82.0102,41.3535)">
        <path d="M191.965,499.323L191.965,678.745" style="fill:none;stroke:rgb(204,204,204);stroke-width:40.52px;" class="RvnABvKp_5"></path>
    </g>
    <g transform="matrix(-0.305811,-3.74511e-17,2.50478e-17,-0.204531,61.705,195.274)">
        <path d="M191.965,499.323L191.965,678.745" style="fill:none;stroke:rgb(204,204,204);stroke-width:23.06px;" class="RvnABvKp_6"></path>
    </g>
    <g transform="matrix(-0.305811,-3.74511e-17,2.50478e-17,-0.204531,136.59,195.274)">
        <path d="M191.965,499.323L191.965,678.745" style="fill:none;stroke:rgb(204,204,204);stroke-width:23.06px;" class="RvnABvKp_7"></path>
    </g>
    <g transform="matrix(-2.80883e-17,0.305811,-0.102265,-3.75717e-17,72.4121,-55.705)">
        <path d="M191.965,499.323L191.965,678.745" style="fill:none;stroke:rgb(204,204,204);stroke-width:26.31px;" class="RvnABvKp_8"></path>
    </g>
    <g transform="matrix(-2.80883e-17,0.305811,-0.102265,-3.75717e-17,72.4121,-19.0077)">
        <path d="M191.965,499.323L191.965,678.745" style="fill:none;stroke:rgb(204,204,204);stroke-width:26.31px;" class="RvnABvKp_9"></path>
    </g>
    <g transform="matrix(-0.305811,-3.74511e-17,2.50478e-17,-0.204531,61.705,141.824)">
        <path d="M191.965,499.323L191.965,678.745" style="fill:none;stroke:rgb(204,204,204);stroke-width:23.06px;" class="RvnABvKp_10"></path>
    </g>
    <g transform="matrix(-0.229359,-1.87256e-17,1.87858e-17,-0.102265,83.7262,81.5865)">
        <path d="M191.965,499.323L191.965,678.745" style="fill:none;stroke:rgb(204,204,204);stroke-width:33.79px;" class="RvnABvKp_11"></path>
    </g>
    <g transform="matrix(1,0,0,1,-307.929,-355.2)">
        <path d="M329.278,358.2L347.627,367.374L347.627,385.723L329.278,394.897" style="fill:none;stroke:rgb(204,204,204);stroke-width:6px;" class="RvnABvKp_12"></path>
    </g>
<style data-made-with="vivus-instant">.RvnABvKp_0{stroke-dasharray:180 182;stroke-dashoffset:181;animation:RvnABvKp_draw 2000ms linear 0ms forwards;}.RvnABvKp_1{stroke-dasharray:180 182;stroke-dashoffset:181;animation:RvnABvKp_draw 2000ms linear 83ms forwards;}.RvnABvKp_2{stroke-dasharray:180 182;stroke-dashoffset:181;animation:RvnABvKp_draw 2000ms linear 166ms forwards;}.RvnABvKp_3{stroke-dasharray:180 182;stroke-dashoffset:181;animation:RvnABvKp_draw 2000ms linear 250ms forwards;}.RvnABvKp_4{stroke-dasharray:180 182;stroke-dashoffset:181;animation:RvnABvKp_draw 2000ms linear 333ms forwards;}.RvnABvKp_5{stroke-dasharray:180 182;stroke-dashoffset:181;animation:RvnABvKp_draw 2000ms linear 416ms forwards;}.RvnABvKp_6{stroke-dasharray:180 182;stroke-dashoffset:181;animation:RvnABvKp_draw 2000ms linear 500ms forwards;}.RvnABvKp_7{stroke-dasharray:180 182;stroke-dashoffset:181;animation:RvnABvKp_draw 2000ms linear 583ms forwards;}.RvnABvKp_8{stroke-dasharray:180 182;stroke-dashoffset:181;animation:RvnABvKp_draw 2000ms linear 666ms forwards;}.RvnABvKp_9{stroke-dasharray:180 182;stroke-dashoffset:181;animation:RvnABvKp_draw 2000ms linear 750ms forwards;}.RvnABvKp_10{stroke-dasharray:180 182;stroke-dashoffset:181;animation:RvnABvKp_draw 2000ms linear 833ms forwards;}.RvnABvKp_11{stroke-dasharray:180 182;stroke-dashoffset:181;animation:RvnABvKp_draw 2000ms linear 916ms forwards;}.RvnABvKp_12{stroke-dasharray:60 62;stroke-dashoffset:61;animation:RvnABvKp_draw 2000ms linear 1000ms forwards;}@keyframes RvnABvKp_draw{100%{stroke-dashoffset:0;}}@keyframes RvnABvKp_fade{0%{stroke-opacity:1;}94.44444444444444%{stroke-opacity:1;}100%{stroke-opacity:0;}}</style></svg>
