<?xml version="1.0" encoding="UTF-8" standalone="no"?>
<!DOCTYPE svg PUBLIC "-//W3C//DTD SVG 1.1//EN" "http://www.w3.org/Graphics/SVG/1.1/DTD/svg11.dtd">
<svg width="100%" height="100%" viewBox="0 0 1758 393" version="1.1" xmlns="http://www.w3.org/2000/svg" xmlns:xlink="http://www.w3.org/1999/xlink" xml:space="preserve" xmlns:serif="http://www.serif.com/" style="fill-rule:evenodd;clip-rule:evenodd;stroke-linejoin:round;stroke-miterlimit:2;">
    <g transform="matrix(2.83742,0,0,2.39404,-305.417,-422.258)">
        <path d="M721.975,222.438C721.975,203.371 708.914,187.891 692.827,187.891L139.107,187.891C123.02,187.891 109.959,203.371 109.959,222.438L109.959,291.531C109.959,310.598 123.02,326.078 139.107,326.078L692.827,326.078C708.914,326.078 721.975,310.598 721.975,291.531L721.975,222.438ZM713.517,222.438L713.517,291.531C713.517,305.065 704.246,316.053 692.827,316.053L139.107,316.053C127.688,316.053 118.417,305.065 118.417,291.531L118.417,222.438C118.417,208.904 127.688,197.916 139.107,197.916L692.827,197.916C704.246,197.916 713.517,208.904 713.517,222.438Z" style="fill:rgb(204,204,204);"/>
    </g>
    <g transform="matrix(2.74457,0,0,2.74457,-530.591,-338.807)">
        <path d="M296.821,173.673C296.821,162.588 287.822,153.588 276.736,153.588L236.567,153.588C225.482,153.588 216.482,162.588 216.482,173.673L216.482,213.842C216.482,224.928 225.482,233.927 236.567,233.927L276.736,233.927C287.822,233.927 296.821,224.928 296.821,213.842L296.821,173.673ZM288.077,173.673L288.077,213.842C288.077,220.101 282.995,225.183 276.736,225.183L236.567,225.183C230.308,225.183 225.227,220.101 225.227,213.842C225.227,213.842 225.227,173.673 225.227,173.673C225.227,167.414 230.308,162.333 236.567,162.333C236.567,162.333 276.736,162.333 276.736,162.333C282.995,162.333 288.077,167.414 288.077,173.673Z" style="fill:rgb(204,204,204);"/>
    </g>
    <g transform="matrix(2.74457,0,0,2.74457,-280.096,-338.807)">
        <path d="M296.821,173.673C296.821,162.588 287.822,153.588 276.736,153.588L236.567,153.588C225.482,153.588 216.482,162.588 216.482,173.673L216.482,213.842C216.482,224.928 225.482,233.927 236.567,233.927L276.736,233.927C287.822,233.927 296.821,224.928 296.821,213.842L296.821,173.673ZM288.077,173.673L288.077,213.842C288.077,220.101 282.995,225.183 276.736,225.183L236.567,225.183C230.308,225.183 225.227,220.101 225.227,213.842L225.227,173.673C225.227,167.414 230.308,162.333 236.567,162.333C236.567,162.333 276.736,162.333 276.736,162.333C282.995,162.333 288.077,167.414 288.077,173.673Z" style="fill:rgb(204,204,204);"/>
    </g>
    <g transform="matrix(2.74457,0,0,2.74457,-222.834,-338.262)">
        <path d="M655.927,153.39C678.098,153.39 696.097,171.389 696.097,193.559C696.097,215.729 678.098,233.728 655.927,233.728C633.757,233.728 615.758,215.729 615.758,193.559C615.758,171.389 633.757,153.39 655.927,153.39ZM655.927,162.134C673.271,162.134 687.352,176.215 687.352,193.559C687.352,210.903 673.271,224.984 655.927,224.984C638.584,224.984 624.503,210.903 624.503,193.559C624.503,176.215 638.584,162.134 655.927,162.134Z" style="fill:rgb(204,204,204);"/>
    </g>
    <g transform="matrix(1.68056e-16,2.74457,-2.74457,1.68056e-16,2637.93,-212.543)">
        <path d="M147.753,346.242L182.168,366.111L182.168,405.851L147.753,425.72L113.338,405.851L113.338,366.111L147.753,346.242ZM147.753,356.339L173.423,371.16C173.423,371.16 173.423,400.802 173.423,400.802C173.423,400.802 147.753,415.623 147.753,415.623C147.753,415.623 122.082,400.802 122.082,400.802C122.082,400.802 122.082,371.16 122.082,371.16L147.753,356.339Z" style="fill:rgb(204,204,204);"/>
    </g>
    <g transform="matrix(2.74457,0,0,2.74457,-29.601,-338.807)">
        <path d="M296.821,173.673C296.821,162.588 287.822,153.588 276.736,153.588L236.567,153.588C225.482,153.588 216.482,162.588 216.482,173.673L216.482,213.842C216.482,224.928 225.482,233.927 236.567,233.927L276.736,233.927C287.822,233.927 296.821,224.928 296.821,213.842L296.821,173.673ZM288.077,173.673L288.077,213.842C288.077,220.101 282.995,225.183 276.736,225.183L236.567,225.183C230.308,225.183 225.227,220.101 225.227,213.842L225.227,173.673C225.227,167.414 230.308,162.333 236.567,162.333C236.567,162.333 276.736,162.333 276.736,162.333C282.995,162.333 288.077,167.414 288.077,173.673Z" style="fill:rgb(204,204,204);"/>
    </g>
    <g transform="matrix(2.74457,0,0,2.74457,220.894,-338.807)">
        <path d="M296.821,173.673C296.821,162.588 287.822,153.588 276.736,153.588L236.567,153.588C225.482,153.588 216.482,162.588 216.482,173.673L216.482,213.842C216.482,224.928 225.482,233.927 236.567,233.927L276.736,233.927C287.822,233.927 296.821,224.928 296.821,213.842L296.821,173.673ZM288.077,173.673L288.077,213.842C288.077,220.101 282.995,225.183 276.736,225.183L236.567,225.183C230.308,225.183 225.227,220.101 225.227,213.842C225.227,213.842 225.227,173.673 225.227,173.673C225.227,167.414 230.308,162.333 236.567,162.333C236.567,162.333 276.736,162.333 276.736,162.333C282.995,162.333 288.077,167.414 288.077,173.673Z" style="fill:rgb(204,204,204);"/>
    </g>
</svg>
