<svg viewBox="0 0 600 60" xmlns="http://www.w3.org/2000/svg" fill-rule="evenodd" clip-rule="evenodd" stroke-linecap="round" stroke-linejoin="round" stroke-miterlimit="1.5" style=""><path d="M191.965 499.323v179.422" fill="none" stroke="#ccc" stroke-width="31.6" transform="matrix(0 .16977 -.05677 0 343.371 -12.776)" class="eXOWzrfu_0"></path><path d="M191.965 499.323v179.422" fill="none" stroke="#ccc" stroke-width="31.6" transform="matrix(0 .16977 -.05677 0 343.371 -2.59)" class="eXOWzrfu_1"></path><path d="M191.965 499.323v179.422" fill="none" stroke="#ccc" stroke-width="27.7" transform="matrix(-.16977 0 0 -.11354 337.427 96.881)" class="eXOWzrfu_2"></path><path d="M315.023 19.814l10.186 5.093L315.023 30" fill="none" stroke="#ccc" stroke-width="4.0025594" class="eXOWzrfu_3"></path><path d="M191.965 499.323v179.422" fill="none" stroke="#ccc" stroke-width="32.52" transform="matrix(0 .16977 -.03785 0 233.762 -12.776)" class="eXOWzrfu_4"></path><path d="M191.965 499.323v179.422" fill="none" stroke="#ccc" stroke-width="32.52" transform="matrix(0 .16977 -.03785 0 233.762 7.596)" class="eXOWzrfu_5"></path><path d="M71.392 499.323l120.573 179.422" fill="none" stroke="#ccc" stroke-width="32.52" transform="matrix(-.16977 0 0 -.03785 233.87 52.488)" class="eXOWzrfu_6"></path><path d="M191.965 499.323l-39.999 184.505" fill="none" stroke="#ccc" stroke-width="32.52" transform="matrix(-.16977 0 0 -.03785 233.87 45.697)" class="eXOWzrfu_7"></path><path d="M191.965 499.323l-28.783 183.8" fill="none" stroke="#ccc" stroke-width="32.52" transform="matrix(.00238 -.16975 .03785 .00053 195.508 52.135)" class="eXOWzrfu_8"></path><path d="M191.965 499.323l-39.999 184.505" fill="none" stroke="#ccc" stroke-width="32.9" transform="matrix(.16622 .0059 .00028 .03704 189.702 13.96)" class="eXOWzrfu_9"></path><path d="M191.965 499.323l-28.874 182.73" fill="none" stroke="#ccc" stroke-width="32.9" transform="matrix(-.0059 .16622 -.03704 .00028 227.506 8.138)" class="eXOWzrfu_10"></path><path d="M191.965 499.323v179.422" fill="none" stroke="#ccc" stroke-width="55.39" transform="matrix(0 .08488 -.05677 0 265.835 13.705)" class="eXOWzrfu_11"></path><path d="M191.965 499.323v179.422" fill="none" stroke="#ccc" stroke-width="27.7" transform="matrix(0 .16977 -.11354 0 304.369 -12.776)" class="eXOWzrfu_12"></path><path d="M191.965 499.323v179.422" fill="none" stroke="#ccc" stroke-width="27.7" transform="matrix(0 .16977 -.11354 0 304.369 7.596)" class="eXOWzrfu_13"></path><path d="M191.965 499.323v179.422" fill="none" stroke="#ccc" stroke-width="27.7" transform="matrix(-.16977 0 0 -.11354 259.891 96.881)" class="eXOWzrfu_14"></path><path d="M191.965 499.323v179.422" fill="none" stroke="#ccc" stroke-width="27.7" transform="matrix(0 .16977 -.11354 0 304.369 -12.776)" class="eXOWzrfu_15"></path><path d="M191.965 499.323v179.422" fill="none" stroke="#ccc" stroke-width="27.7" transform="matrix(0 .16977 -.11354 0 330.203 -12.776)" class="eXOWzrfu_16"></path><path d="M191.965 499.323v179.422" fill="none" stroke="#ccc" stroke-width="27.7" transform="matrix(-.16977 0 0 -.11354 295.912 96.881)" class="eXOWzrfu_17"></path><path d="M191.965 499.323v179.422" fill="none" stroke="#ccc" stroke-width="27.7" transform="matrix(0 .16977 -.11354 0 450.503 -12.776)" class="eXOWzrfu_18"></path><path d="M191.965 499.323v179.422" fill="none" stroke="#ccc" stroke-width="27.7" transform="matrix(-.16977 0 0 -.11354 416.212 96.881)" class="eXOWzrfu_19"></path><path d="M191.965 499.323v179.422" fill="none" stroke="#ccc" stroke-width="27.7" transform="matrix(0 .16977 -.11354 0 554.198 -12.776)" class="eXOWzrfu_20"></path><path d="M191.965 499.323v179.422" fill="none" stroke="#ccc" stroke-width="27.7" transform="matrix(-.16977 0 0 -.11354 519.907 96.881)" class="eXOWzrfu_21"></path><path d="M251.965 589.034l-60 89.711" fill="none" stroke="#ccc" stroke-width="27.7" transform="matrix(0 .16977 -.11354 0 580.122 -12.776)" class="eXOWzrfu_22"></path><path d="M251.965 589.034l-60 89.711" fill="none" stroke="#ccc" stroke-width="27.7" transform="matrix(0 .16977 .11354 0 446.36 -12.776)" class="eXOWzrfu_23"></path><path d="M191.965 499.323v89.711" fill="none" stroke="#ccc" stroke-width="27.7" transform="matrix(-.16977 0 0 -.11354 545.83 96.881)" class="eXOWzrfu_24"></path><path d="M191.965 499.323v179.422" fill="none" stroke="#ccc" stroke-width="27.7" transform="matrix(0 .16977 -.11354 0 476.427 -12.776)" class="eXOWzrfu_25"></path><path d="M191.965 499.323v179.422" fill="none" stroke="#ccc" stroke-width="27.7" transform="matrix(0 .16977 -.11354 0 476.427 7.596)" class="eXOWzrfu_26"></path><path d="M191.965 499.323v179.422" fill="none" stroke="#ccc" stroke-width="27.7" transform="matrix(-.16977 0 0 -.11354 442.136 96.881)" class="eXOWzrfu_27"></path><path d="M191.965 499.323v179.422" fill="none" stroke="#ccc" stroke-width="27.7" transform="matrix(0 .16977 -.11354 0 528.274 -12.776)" class="eXOWzrfu_28"></path><path d="M191.965 499.323v179.422" fill="none" stroke="#ccc" stroke-width="27.7" transform="matrix(0 .16977 -.11354 0 528.274 7.596)" class="eXOWzrfu_29"></path><path d="M191.965 499.323v179.422" fill="none" stroke="#ccc" stroke-width="27.7" transform="matrix(-.16977 0 0 -.11354 493.983 96.881)" class="eXOWzrfu_30"></path><path d="M191.965 499.323v179.422" fill="none" stroke="#ccc" stroke-width="27.7" transform="matrix(0 .16977 -.11354 0 502.351 7.596)" class="eXOWzrfu_31"></path><path d="M191.965 499.323v179.422" fill="none" stroke="#ccc" stroke-width="27.7" transform="matrix(-.16977 0 0 -.11354 457.873 96.881)" class="eXOWzrfu_32"></path><path d="M191.965 499.323v179.422" fill="none" stroke="#ccc" stroke-width="32.52" transform="matrix(0 .16977 -.03785 0 311.298 7.596)" class="eXOWzrfu_33"></path><path d="M191.965 499.323l1.627 363.927" fill="none" stroke="#ccc" stroke-width="32.52" transform="matrix(-.16977 0 0 -.03785 331.876 52.488)" class="eXOWzrfu_34"></path><path d="M191.965 499.323V863.25" fill="none" stroke="#ccc" stroke-width="32.52" transform="matrix(-.16977 0 0 -.03785 311.406 52.488)" class="eXOWzrfu_35"></path><path d="M191.965 499.323l-39.999 184.505" fill="none" stroke="#ccc" stroke-width="32.9" transform="matrix(.16622 .0059 .00028 .03704 267.238 13.96)" class="eXOWzrfu_36"></path><path d="M191.965 499.323l-39.999 184.505" fill="none" stroke="#ccc" stroke-width="32.9" transform="matrix(-.0059 .16622 -.03704 .00028 305.042 8.138)" class="eXOWzrfu_37"></path><path d="M191.965 499.323v179.422" fill="none" stroke="#ccc" stroke-width="32.52" transform="matrix(0 .16977 -.03785 0 379.897 7.596)" class="eXOWzrfu_38"></path><path d="M191.965 499.323l1.627 363.927" fill="none" stroke="#ccc" stroke-width="32.52" transform="matrix(-.16977 0 0 -.03785 400.474 52.488)" class="eXOWzrfu_39"></path><path d="M191.965 499.323V863.25" fill="none" stroke="#ccc" stroke-width="32.52" transform="matrix(-.16977 0 0 -.03785 380.005 52.488)" class="eXOWzrfu_40"></path><path d="M191.965 499.323l-39.999 184.505" fill="none" stroke="#ccc" stroke-width="32.9" transform="matrix(.16622 .0059 .00028 .03704 335.837 13.96)" class="eXOWzrfu_41"></path><path d="M191.965 499.323l-39.999 184.505" fill="none" stroke="#ccc" stroke-width="32.9" transform="matrix(-.0059 .16622 -.03704 .00028 373.641 8.138)" class="eXOWzrfu_42"></path><path d="M191.965 499.323v179.422" fill="none" stroke="#797979" stroke-width="19.58" transform="rotate(-45 27.842 -81.815) scale(.24009 .16058)" class="eXOWzrfu_43"></path><path d="M191.965 499.323v179.422" fill="none" stroke="#797979" stroke-width="19.58" transform="rotate(-135 92.41 37.574) scale(.24009 .16058)" class="eXOWzrfu_44"></path><path d="M191.965 499.323v179.422" fill="none" stroke="#ccc" stroke-width="55.39" transform="matrix(0 .08488 -.05677 0 156.582 -1.13)" class="eXOWzrfu_45"></path><path d="M191.965 499.323v179.422" fill="none" stroke="#ccc" stroke-width="27.7" transform="matrix(0 .16977 -.11354 0 195.115 -27.612)" class="eXOWzrfu_46"></path><path d="M191.965 499.323v179.422" fill="none" stroke="#ccc" stroke-width="27.7" transform="matrix(0 .16977 -.11354 0 195.115 -7.24)" class="eXOWzrfu_47"></path><path d="M191.965 499.323v179.422" fill="none" stroke="#ccc" stroke-width="27.7" transform="matrix(-.16977 0 0 -.11354 150.638 82.045)" class="eXOWzrfu_48"></path><path d="M191.965 499.323v179.422" fill="none" stroke="#ccc" stroke-width="10.95" transform="matrix(0 .4293 -.28712 0 281.451 -47.759)" class="eXOWzrfu_49"></path><path d="M191.965 499.323v179.422" fill="none" stroke="#ccc" stroke-width="48.67" transform="matrix(0 .09662 -.06462 0 130.435 26.27)" class="eXOWzrfu_50"></path><path d="M191.965 499.323v179.422" fill="none" stroke="#ccc" stroke-width="27.7" transform="matrix(-.16977 0 0 -.11354 119.163 111.717)" class="eXOWzrfu_51"></path><path d="M191.965 499.323v179.422" fill="none" stroke="#ccc" stroke-width="27.7" transform="matrix(-.16977 0 0 -.11354 160.735 111.717)" class="eXOWzrfu_52"></path><path d="M191.965 499.323v179.422" fill="none" stroke="#ccc" stroke-width="10.95" transform="matrix(0 .4293 -.28712 0 281.451 -47.759)" class="eXOWzrfu_53"></path><path d="M191.965 499.323v179.422" fill="none" stroke="#ccc" stroke-width="27.7" transform="matrix(-.16977 0 0 -.11354 160.735 111.717)" class="eXOWzrfu_54"></path><path d="M191.965 499.323v179.422" fill="none" stroke="#ccc" stroke-width="31.6" transform="matrix(0 .16977 -.05677 0 125.107 -27.612)" class="eXOWzrfu_55"></path><path d="M191.965 499.323v179.422" fill="none" stroke="#ccc" stroke-width="31.6" transform="matrix(0 .16977 -.05677 0 125.107 -7.24)" class="eXOWzrfu_56"></path><path d="M191.965 499.323v179.422" fill="none" stroke="#ccc" stroke-width="27.7" transform="matrix(-.16977 0 0 -.11354 119.163 82.045)" class="eXOWzrfu_57"></path><path d="M191.965 499.323v179.422" fill="none" stroke="#ccc" stroke-width="40.58" transform="matrix(-.12733 0 0 -.05677 131.388 48.605)" class="eXOWzrfu_58"></path><path d="M96.76 4.978l10.185 5.093v10.186L96.76 25.35" fill="none" stroke="#ccc" stroke-width="4.0025594" class="eXOWzrfu_59"></path><style data-made-with="vivus-instant">.eXOWzrfu_0{stroke-dasharray:180 182;stroke-dashoffset:181;animation:eXOWzrfu_draw 2000ms ease-in-out 0ms forwards;}.eXOWzrfu_1{stroke-dasharray:180 182;stroke-dashoffset:181;animation:eXOWzrfu_draw 2000ms ease-in-out 16ms forwards;}.eXOWzrfu_2{stroke-dasharray:180 182;stroke-dashoffset:181;animation:eXOWzrfu_draw 2000ms ease-in-out 33ms forwards;}.eXOWzrfu_3{stroke-dasharray:23 25;stroke-dashoffset:24;animation:eXOWzrfu_draw 2000ms ease-in-out 50ms forwards;}.eXOWzrfu_4{stroke-dasharray:180 182;stroke-dashoffset:181;animation:eXOWzrfu_draw 2000ms ease-in-out 67ms forwards;}.eXOWzrfu_5{stroke-dasharray:180 182;stroke-dashoffset:181;animation:eXOWzrfu_draw 2000ms ease-in-out 84ms forwards;}.eXOWzrfu_6{stroke-dasharray:217 219;stroke-dashoffset:218;animation:eXOWzrfu_draw 2000ms ease-in-out 101ms forwards;}.eXOWzrfu_7{stroke-dasharray:189 191;stroke-dashoffset:190;animation:eXOWzrfu_draw 2000ms ease-in-out 118ms forwards;}.eXOWzrfu_8{stroke-dasharray:187 189;stroke-dashoffset:188;animation:eXOWzrfu_draw 2000ms ease-in-out 135ms forwards;}.eXOWzrfu_9{stroke-dasharray:189 191;stroke-dashoffset:190;animation:eXOWzrfu_draw 2000ms ease-in-out 152ms forwards;}.eXOWzrfu_10{stroke-dasharray:185 187;stroke-dashoffset:186;animation:eXOWzrfu_draw 2000ms ease-in-out 169ms forwards;}.eXOWzrfu_11{stroke-dasharray:180 182;stroke-dashoffset:181;animation:eXOWzrfu_draw 2000ms ease-in-out 186ms forwards;}.eXOWzrfu_12{stroke-dasharray:180 182;stroke-dashoffset:181;animation:eXOWzrfu_draw 2000ms ease-in-out 203ms forwards;}.eXOWzrfu_13{stroke-dasharray:180 182;stroke-dashoffset:181;animation:eXOWzrfu_draw 2000ms ease-in-out 220ms forwards;}.eXOWzrfu_14{stroke-dasharray:180 182;stroke-dashoffset:181;animation:eXOWzrfu_draw 2000ms ease-in-out 237ms forwards;}.eXOWzrfu_15{stroke-dasharray:180 182;stroke-dashoffset:181;animation:eXOWzrfu_draw 2000ms ease-in-out 254ms forwards;}.eXOWzrfu_16{stroke-dasharray:180 182;stroke-dashoffset:181;animation:eXOWzrfu_draw 2000ms ease-in-out 271ms forwards;}.eXOWzrfu_17{stroke-dasharray:180 182;stroke-dashoffset:181;animation:eXOWzrfu_draw 2000ms ease-in-out 288ms forwards;}.eXOWzrfu_18{stroke-dasharray:180 182;stroke-dashoffset:181;animation:eXOWzrfu_draw 2000ms ease-in-out 305ms forwards;}.eXOWzrfu_19{stroke-dasharray:180 182;stroke-dashoffset:181;animation:eXOWzrfu_draw 2000ms ease-in-out 322ms forwards;}.eXOWzrfu_20{stroke-dasharray:180 182;stroke-dashoffset:181;animation:eXOWzrfu_draw 2000ms ease-in-out 338ms forwards;}.eXOWzrfu_21{stroke-dasharray:180 182;stroke-dashoffset:181;animation:eXOWzrfu_draw 2000ms ease-in-out 355ms forwards;}.eXOWzrfu_22{stroke-dasharray:108 110;stroke-dashoffset:109;animation:eXOWzrfu_draw 2000ms ease-in-out 372ms forwards;}.eXOWzrfu_23{stroke-dasharray:108 110;stroke-dashoffset:109;animation:eXOWzrfu_draw 2000ms ease-in-out 389ms forwards;}.eXOWzrfu_24{stroke-dasharray:90 92;stroke-dashoffset:91;animation:eXOWzrfu_draw 2000ms ease-in-out 406ms forwards;}.eXOWzrfu_25{stroke-dasharray:180 182;stroke-dashoffset:181;animation:eXOWzrfu_draw 2000ms ease-in-out 423ms forwards;}.eXOWzrfu_26{stroke-dasharray:180 182;stroke-dashoffset:181;animation:eXOWzrfu_draw 2000ms ease-in-out 440ms forwards;}.eXOWzrfu_27{stroke-dasharray:180 182;stroke-dashoffset:181;animation:eXOWzrfu_draw 2000ms ease-in-out 457ms forwards;}.eXOWzrfu_28{stroke-dasharray:180 182;stroke-dashoffset:181;animation:eXOWzrfu_draw 2000ms ease-in-out 474ms forwards;}.eXOWzrfu_29{stroke-dasharray:180 182;stroke-dashoffset:181;animation:eXOWzrfu_draw 2000ms ease-in-out 491ms forwards;}.eXOWzrfu_30{stroke-dasharray:180 182;stroke-dashoffset:181;animation:eXOWzrfu_draw 2000ms ease-in-out 508ms forwards;}.eXOWzrfu_31{stroke-dasharray:180 182;stroke-dashoffset:181;animation:eXOWzrfu_draw 2000ms ease-in-out 525ms forwards;}.eXOWzrfu_32{stroke-dasharray:180 182;stroke-dashoffset:181;animation:eXOWzrfu_draw 2000ms ease-in-out 542ms forwards;}.eXOWzrfu_33{stroke-dasharray:180 182;stroke-dashoffset:181;animation:eXOWzrfu_draw 2000ms ease-in-out 559ms forwards;}.eXOWzrfu_34{stroke-dasharray:364 366;stroke-dashoffset:365;animation:eXOWzrfu_draw 2000ms ease-in-out 576ms forwards;}.eXOWzrfu_35{stroke-dasharray:364 366;stroke-dashoffset:365;animation:eXOWzrfu_draw 2000ms ease-in-out 593ms forwards;}.eXOWzrfu_36{stroke-dasharray:189 191;stroke-dashoffset:190;animation:eXOWzrfu_draw 2000ms ease-in-out 610ms forwards;}.eXOWzrfu_37{stroke-dasharray:189 191;stroke-dashoffset:190;animation:eXOWzrfu_draw 2000ms ease-in-out 627ms forwards;}.eXOWzrfu_38{stroke-dasharray:180 182;stroke-dashoffset:181;animation:eXOWzrfu_draw 2000ms ease-in-out 644ms forwards;}.eXOWzrfu_39{stroke-dasharray:364 366;stroke-dashoffset:365;animation:eXOWzrfu_draw 2000ms ease-in-out 661ms forwards;}.eXOWzrfu_40{stroke-dasharray:364 366;stroke-dashoffset:365;animation:eXOWzrfu_draw 2000ms ease-in-out 677ms forwards;}.eXOWzrfu_41{stroke-dasharray:189 191;stroke-dashoffset:190;animation:eXOWzrfu_draw 2000ms ease-in-out 694ms forwards;}.eXOWzrfu_42{stroke-dasharray:189 191;stroke-dashoffset:190;animation:eXOWzrfu_draw 2000ms ease-in-out 711ms forwards;}.eXOWzrfu_43{stroke-dasharray:180 182;stroke-dashoffset:181;animation:eXOWzrfu_draw 2000ms ease-in-out 728ms forwards;}.eXOWzrfu_44{stroke-dasharray:180 182;stroke-dashoffset:181;animation:eXOWzrfu_draw 2000ms ease-in-out 745ms forwards;}.eXOWzrfu_45{stroke-dasharray:180 182;stroke-dashoffset:181;animation:eXOWzrfu_draw 2000ms ease-in-out 762ms forwards;}.eXOWzrfu_46{stroke-dasharray:180 182;stroke-dashoffset:181;animation:eXOWzrfu_draw 2000ms ease-in-out 779ms forwards;}.eXOWzrfu_47{stroke-dasharray:180 182;stroke-dashoffset:181;animation:eXOWzrfu_draw 2000ms ease-in-out 796ms forwards;}.eXOWzrfu_48{stroke-dasharray:180 182;stroke-dashoffset:181;animation:eXOWzrfu_draw 2000ms ease-in-out 813ms forwards;}.eXOWzrfu_49{stroke-dasharray:180 182;stroke-dashoffset:181;animation:eXOWzrfu_draw 2000ms ease-in-out 830ms forwards;}.eXOWzrfu_50{stroke-dasharray:180 182;stroke-dashoffset:181;animation:eXOWzrfu_draw 2000ms ease-in-out 847ms forwards;}.eXOWzrfu_51{stroke-dasharray:180 182;stroke-dashoffset:181;animation:eXOWzrfu_draw 2000ms ease-in-out 864ms forwards;}.eXOWzrfu_52{stroke-dasharray:180 182;stroke-dashoffset:181;animation:eXOWzrfu_draw 2000ms ease-in-out 881ms forwards;}.eXOWzrfu_53{stroke-dasharray:180 182;stroke-dashoffset:181;animation:eXOWzrfu_draw 2000ms ease-in-out 898ms forwards;}.eXOWzrfu_54{stroke-dasharray:180 182;stroke-dashoffset:181;animation:eXOWzrfu_draw 2000ms ease-in-out 915ms forwards;}.eXOWzrfu_55{stroke-dasharray:180 182;stroke-dashoffset:181;animation:eXOWzrfu_draw 2000ms ease-in-out 932ms forwards;}.eXOWzrfu_56{stroke-dasharray:180 182;stroke-dashoffset:181;animation:eXOWzrfu_draw 2000ms ease-in-out 949ms forwards;}.eXOWzrfu_57{stroke-dasharray:180 182;stroke-dashoffset:181;animation:eXOWzrfu_draw 2000ms ease-in-out 966ms forwards;}.eXOWzrfu_58{stroke-dasharray:180 182;stroke-dashoffset:181;animation:eXOWzrfu_draw 2000ms ease-in-out 983ms forwards;}.eXOWzrfu_59{stroke-dasharray:33 35;stroke-dashoffset:34;animation:eXOWzrfu_draw 2000ms ease-in-out 1000ms forwards;}@keyframes eXOWzrfu_draw{100%{stroke-dashoffset:0;}}@keyframes eXOWzrfu_fade{0%{stroke-opacity:1;}94.44444444444444%{stroke-opacity:1;}100%{stroke-opacity:0;}}</style></svg>